<?xml version="1.0" encoding="iso-8859-1"?>
<!-- Generator: Adobe Illustrator 19.1.0, SVG Export Plug-In . SVG Version: 6.00 Build 0)  -->
<svg version="1.1" id="Layer_1" xmlns="http://www.w3.org/2000/svg" xmlns:xlink="http://www.w3.org/1999/xlink" x="0px" y="0px"
	 viewBox="0 0 128.699 22.979" style="enable-background:new 0 0 128.699 22.979;" xml:space="preserve">
<path style="fill:#F58A23;" d="M5.768,22.964C1.886,22.964,0,21.76,0,19.131c0-0.188,0.002-0.374,0.031-0.584
	c0.001-0.017,0.004-0.038,0.006-0.051c0.001-0.006,0.003-0.011,0.004-0.017c0.009-0.041,0.026-0.092,0.044-0.124
	C0.077,18.37,0.07,18.385,0.065,18.4c0.106-0.341,0.504-0.58,0.921-0.517c0.107,0.016,0.207,0.051,0.3,0.102
	c1.06,0.512,2.38,0.733,3.625,0.733c1.722,0,1.722-0.604,1.722-0.802c0-0.443-0.624-0.749-1.922-1.345l-0.118-0.054
	C2.659,15.62,0.18,14.505,0.18,11.355c0-2.81,2.664-5.611,8.446-5.611c1.442,0,2.856,0.105,4.282,0.319
	c0.147,0.022,0.282,0.098,0.368,0.209c0.087,0.111,0.121,0.251,0.095,0.384l-0.722,3.461c-0.028,0.144-0.124,0.27-0.261,0.345
	c-0.133,0.074-0.306,0.094-0.458,0.052c-1.26-0.35-2.361-0.506-3.243-0.506c-0.56,0-1.499,0.082-1.499,0.631
	c0,0.424,1.164,0.948,2.289,1.454c1.516,0.67,4.431,1.979,4.431,5.14C13.908,19.905,11.71,22.964,5.768,22.964"/>
<path style="fill:#F58A23;" d="M64.339,5.41c-6.24,0-10.115,3.502-10.115,8.798c0,5.401,3.609,8.756,9.416,8.756
	c5.956,0,9.957-3.782,9.957-9.412C73.598,8.513,70.223,5.41,64.339,5.41 M63.731,17.688c-2.274,0-3.702-1.231-3.702-3.345
	c0-2.072,1.608-3.506,4.05-3.506c2.303,0,3.702,1.219,3.702,3.191C67.781,16.231,66.063,17.688,63.731,17.688"/>
<path style="fill:#F58A23;" d="M124.645,22.657h-11.408c-0.311,0-0.563-0.229-0.563-0.511v-3.276c0-1.894,2.031-3.871,3.823-5.477
	l0.427-0.383c1.006-0.899,1.966-2.26,2.322-2.96h-5.481c-0.31,0-0.563-0.229-0.563-0.51V6.096c0-0.282,0.253-0.511,0.563-0.511
	h13.31c0.311,0,0.563,0.229,0.563,0.511v3.465c0,1.951-2.077,4.24-3.871,5.838l-0.128,0.114c-1.006,0.896-2.583,2.675-2.415,2.709
	c0.168,0.035,0.72,0.067,1.342,0.088c0.622,0.021,4.374-0.083,5.229-0.262c0.176-0.036,0.254-0.009,0.273-0.006
	c0.373,0.056,0.631,0.332,0.631,0.673C128.699,21.398,127.373,22.657,124.645,22.657"/>
<path style="fill:#F58A23;" d="M105.362,22.979c-4.301,0-6.973-2.371-6.973-6.188v-6.74h-2.071c-0.026,0-0.058-0.003-0.089-0.009
	c-0.003,0-0.005,0-0.008-0.001c-0.019-0.002-0.051-0.009-0.085-0.021c-0.016-0.005-0.031-0.01-0.047-0.016
	c-0.251-0.083-0.429-0.275-0.476-0.512c-0.015-0.055-0.021-0.111-0.015-0.167c0.001-0.007,0.003-0.025,0.004-0.036
	c0.001-0.005,0.001-0.009,0.002-0.014c0.001-0.004,0.001-0.008,0.002-0.012c0.205-1.743,1.947-2.487,3.299-3.335l5.355-3.125
	c0.095-0.06,0.207-0.092,0.323-0.092h0.484c0.311,0,0.563,0.229,0.563,0.51v2.36h3.838c0.311,0,0.563,0.229,0.563,0.51V9.54
	c0,0.282-0.252,0.511-0.563,0.511h-3.838v6.568c0,1.271,0.621,1.971,2.017,1.971c0.677,0,1.321-0.248,1.68-0.551
	c0.018-0.015,0.042-0.031,0.064-0.044c0.151-0.1,0.335-0.143,0.522-0.114c0.311,0.046,0.52,0.27,0.578,0.581
	c0.067,0.367,0.067,0.598,0.067,0.835C110.561,21.971,107.789,22.979,105.362,22.979"/>
<path style="fill:#F58A23;" d="M36.985,19.693c-0.182-0.198-0.492-0.276-0.772-0.19c-0.216,0.065-0.401,0.092-0.639,0.092
	c-0.651,0-2.176-0.678-4.413-4.602c2.312-1.3,3.521-3.821,3.521-6.695c0-0.559-0.186-1.264-0.293-1.812
	c-0.048-0.245-0.281-0.422-0.554-0.422h-5.808c-0.168,0-0.326,0.067-0.432,0.183c-0.108,0.116-0.152,0.269-0.122,0.42l0.044,0.218
	c0.112,0.543,0.218,1.056,0.218,1.714c0,2.565-0.792,4.169-3.088,4.234V0.511C24.647,0.229,24.395,0,24.084,0h-6.091
	c-0.311,0-0.564,0.229-0.564,0.511v21.639c0,0.282,0.253,0.511,0.564,0.511h6.091c0.311,0,0.564-0.229,0.564-0.511v-5.148
	l0.002-0.003c0,0,0.026-0.11,0.132-0.122c0.091-0.01,0.136,0.036,0.166,0.114c0.577,2.015,2.047,5.988,7.223,5.988
	c1.153,0,4.096-0.078,4.784-2.155c0.069-0.211,0.177-0.589,0.18-0.605C37.173,20.03,37.118,19.837,36.985,19.693"/>
<path style="fill:#F58A23;" d="M52.788,5.906c-0.335-0.105-0.685-0.156-1.068-0.156c-2.293,0-3.783,1.221-4.902,2.579
	c-0.184,0.153-0.294-0.022-0.304-0.041c-0.607-1.601-2.435-2.225-4.252-2.225c-2.417,0-4.104,1.197-4.405,3.094
	c-0.002,0.015-0.004,0.031-0.004,0.047c-0.031,0.327,0.221,0.628,0.584,0.683c0.022,0.003,0.057,0.007,0.1,0.007
	c0.075,0,0.219-0.009,0.346-0.072c0.151-0.075,0.269-0.118,0.428-0.118c0.191,0,0.481-0.022,0.481,0.911v11.534
	c0,0.282,0.253,0.511,0.563,0.511h6.088h0.001c0.148,0,0.294-0.055,0.399-0.15c0.106-0.096,0.165-0.225,0.165-0.361v-8.904v-0.024
	c0-0.871,2.239-1.644,3.608-1.644c0.55,0,1.01,0.065,1.449,0.204c0.166,0.052,0.35,0.031,0.496-0.057
	c0.146-0.088,0.24-0.235,0.251-0.392l0.357-4.91C53.183,6.193,53.027,5.981,52.788,5.906"/>
<path style="fill:#F58A23;" d="M95.117,19.087c-0.105-0.134-0.262-0.222-0.44-0.248c-0.181-0.028-0.36,0.014-0.504,0.108
	c-0.017,0.01-0.033,0.02-0.047,0.03c-0.071,0.053-0.202,0.155-0.371,0.155c-0.193,0-0.55,0-0.55-0.916V6.093
	c0-0.282-0.253-0.51-0.563-0.51h-5.99c-0.311,0-0.564,0.229-0.564,0.51v9.705c-0.472,0.527-1.499,1.537-2.331,1.537
	c-0.143,0-0.661,0-0.661-0.802V6.093c0-0.282-0.253-0.51-0.563-0.51h-5.916c-0.311,0-0.564,0.229-0.564,0.51v12.038
	c0,1.432,0.173,2.894,1.425,3.889c0.749,0.609,1.777,0.959,2.82,0.959c2.336,0,4.132-1.106,5.69-2.472l0.022-0.016
	c0.273-0.191,0.431,0.064,0.431,0.064c0.009,0.017,0.019,0.031,0.029,0.046c0.534,1.092,1.847,2.218,4.3,2.218
	c2.907,0,4.228-1.754,4.463-3.262c0.001-0.006,0.002-0.011,0.002-0.017C95.264,19.38,95.222,19.219,95.117,19.087"/>
</svg>
