<?xml version="1.0" encoding="iso-8859-1"?>
<!-- Generator: Adobe Illustrator 19.1.0, SVG Export Plug-In . SVG Version: 6.00 Build 0)  -->
<svg version="1.1" id="Layer_1" xmlns="http://www.w3.org/2000/svg" xmlns:xlink="http://www.w3.org/1999/xlink" x="0px" y="0px"
	 viewBox="0 0 130.246 22.012" style="enable-background:new 0 0 130.246 22.012;" xml:space="preserve">
<g>
	<g>
		<path style="fill-rule:evenodd;clip-rule:evenodd;" d="M127.574,12.985c-0.785,0.23-1.661,0.287-2.505,0.299v-1.885
			c0.952-0.004,1.974-0.117,2.493-0.761c0.51-0.635,0.361-1.558-0.264-2.094c-0.431-0.37-1.027-0.467-1.577-0.467
			c-0.232,0-0.449,0.013-0.652,0.041V6.174c0.139-0.01,0.28-0.017,0.426-0.02c3.207-0.051,5.113,2.707,4.428,4.799
			C129.634,11.836,128.883,12.601,127.574,12.985L127.574,12.985z M125.069,16.605c1.343,0.147,2.754-0.516,3.138-2.17
			c0.742,0,1.296,0,2.039,0c-0.236,2.533-2.219,4.008-4.504,4.11c-0.23,0.011-0.455,0.008-0.673-0.005V16.605z M125.069,13.284
			c-0.416,0.006-0.824,0.002-1.21,0.002c-0.505,0-1.009,0-1.514,0c-0.219,1.961,1.21,3.153,2.723,3.318v1.935
			c-2.969-0.181-4.88-2.49-4.98-5.623c-0.116-3.641,1.475-6.477,4.98-6.743v1.944c-0.373,0.05-0.697,0.146-0.974,0.288
			c-0.001,0.001-0.002,0.001-0.002,0.001c-0.001,0.001-0.002,0.001-0.002,0.001c-0.058,0.03-0.116,0.062-0.175,0.096l0,0
			c-0.052,0.03-0.109,0.066-0.166,0.104l0,0c-0.813,0.543-1.223,1.41-1.415,2.353c-0.028,0.14-0.049,0.28-0.065,0.414
			c0.495,0,0.99,0,1.484,0c0.372,0,0.834,0.025,1.315,0.024V13.284L125.069,13.284z M109.558,18.574v-1.912
			c0.243-0.007,0.469-0.036,0.675-0.087c0.075-0.019,0.151-0.042,0.223-0.067c0.144-0.051,0.278-0.115,0.4-0.191
			c0.188-0.117,0.356-0.253,0.506-0.407c0.15-0.154,0.281-0.33,0.395-0.525c0.114-0.196,0.211-0.408,0.292-0.636
			c0.081-0.229,0.145-0.473,0.192-0.731c0.047-0.259,0.083-0.525,0.106-0.798c0.024-0.27,0.036-0.544,0.036-0.82
			c0-0.351-0.012-0.683-0.036-0.994c-0.024-0.31-0.059-0.601-0.106-0.869l-0.002-0.011c-0.013-0.073-0.027-0.146-0.043-0.218
			c-0.016-0.074-0.034-0.144-0.051-0.207c-0.094-0.342-0.222-0.639-0.385-0.892v0c-0.111-0.175-0.242-0.33-0.391-0.462
			c-0.148-0.133-0.316-0.245-0.502-0.336l-0.001-0.001l-0.007-0.003l-0.001-0.001c-0.091-0.044-0.189-0.083-0.291-0.116h-0.001
			c-0.104-0.034-0.214-0.062-0.331-0.085c-0.207-0.04-0.433-0.064-0.678-0.069V6.23c0.115-0.005,0.234-0.007,0.355-0.007h0.011v0
			c0.412,0.001,0.795,0.038,1.146,0.112c0.06,0.012,0.118,0.026,0.171,0.039c0.288,0.072,0.554,0.171,0.8,0.295l0.004,0.002l0,0
			c0.083,0.042,0.163,0.087,0.24,0.133c0.078,0.047,0.155,0.096,0.227,0.146l0.001,0.001c0.378,0.264,0.699,0.591,0.962,0.979
			l-0.001,0l0.004,0.006l0.001,0c0.048,0.07,0.097,0.148,0.147,0.234c0.048,0.081,0.093,0.164,0.135,0.246l0.001,0.001
			c0.22,0.431,0.39,0.919,0.508,1.463c0.164,0.755,0.246,1.596,0.246,2.52v0.018h-0.001c-0.001,0.348-0.019,0.7-0.057,1.051v0.001
			l-0.02,0.172v0.001c-0.036,0.293-0.085,0.589-0.147,0.888c-0.075,0.361-0.18,0.709-0.311,1.04
			c-0.132,0.333-0.293,0.651-0.481,0.951c-0.19,0.304-0.416,0.581-0.677,0.828c-0.261,0.247-0.556,0.467-0.886,0.655l0,0
			C111.299,18.37,110.506,18.56,109.558,18.574L109.558,18.574z M118.395,16.766c0,0.25,0.011,0.486,0.032,0.709
			c0.01,0.107,0.027,0.213,0.05,0.314c0.023,0.101,0.052,0.198,0.085,0.286l0.065,0.168h-0.18h-1.951h-0.101l-0.02-0.098
			l-0.006-0.028l-0.001-0.002l-0.017-0.087l-0.001-0.003l-0.015-0.088v-0.001c-0.025-0.15-0.042-0.305-0.052-0.463
			c-0.007-0.112-0.013-0.229-0.017-0.351c-0.004-0.123-0.006-0.242-0.006-0.355V2.29V2.166h0.124h1.884h0.125V2.29V16.766z
			 M109.558,6.23v1.905c-0.036-0.001-0.073-0.001-0.11-0.001h-0.012v0c-0.284,0-0.541,0.024-0.77,0.07v0l-0.115,0.025
			c-0.18,0.044-0.344,0.104-0.488,0.179l-0.001,0l-0.002,0.001l-0.002,0.001l-0.001,0c-0.049,0.026-0.096,0.053-0.14,0.08
			c-0.043,0.026-0.087,0.057-0.132,0.091l0,0c-0.217,0.163-0.397,0.37-0.537,0.619v0c-0.099,0.178-0.183,0.377-0.25,0.596
			c-0.068,0.221-0.121,0.466-0.156,0.734l-0.004,0.029h-0.001c-0.009,0.076-0.019,0.154-0.027,0.231v0.001l-0.023,0.241
			c-0.036,0.419-0.055,0.875-0.055,1.367h0.001v0.037h-0.001c0.001,0.341,0.011,0.667,0.029,0.974l0.009,0.15v0.001
			c0.018,0.25,0.042,0.486,0.072,0.705c0.036,0.268,0.088,0.513,0.156,0.734c0.067,0.219,0.151,0.418,0.25,0.596l0.002,0.004h0.001
			c0.026,0.047,0.056,0.095,0.087,0.141c0.032,0.048,0.064,0.093,0.095,0.131l0.001,0.001c0.169,0.214,0.379,0.386,0.629,0.516
			c0.174,0.091,0.376,0.159,0.604,0.204v0.001c0.23,0.046,0.49,0.069,0.779,0.069h0.01v0.001c0.034,0,0.068-0.001,0.101-0.002v1.912
			c-0.036,0.001-0.073,0.001-0.11,0.001v-0.001c-0.502,0-0.957-0.034-1.364-0.101c-0.41-0.068-0.774-0.172-1.09-0.309
			c-0.635-0.275-1.134-0.678-1.494-1.207c-0.179-0.263-0.329-0.558-0.449-0.884c-0.118-0.322-0.208-0.677-0.269-1.063
			c-0.119-0.762-0.179-1.633-0.179-2.612V2.29V2.166h0.124h1.884h0.125V2.29v5.032c0.107-0.118,0.223-0.226,0.348-0.324v0
			c0.219-0.172,0.467-0.318,0.744-0.433h0.001l0.009-0.004c0.139-0.057,0.286-0.107,0.437-0.148c0.151-0.041,0.315-0.076,0.49-0.105
			C109.009,6.268,109.275,6.241,109.558,6.23L109.558,6.23z M97.752,18.565v-1.949c1.451-0.214,2.397-1.177,2.734-2.838
			c0.027-0.139,0.049-0.279,0.064-0.414c-0.495,0-0.99,0-1.483,0c-0.372,0-0.835-0.026-1.315-0.024v-1.885
			c0.416-0.006,0.823-0.001,1.209-0.001c0.505,0,1.009,0,1.514,0c0.144-1.285-0.345-2.236-1.08-2.789
			c-0.479-0.36-1.062-0.551-1.642-0.555V6.191c0.708,0.021,1.435,0.195,2.133,0.532c1.802,0.872,2.814,2.786,2.847,5.1
			c0.016,1.12-0.098,2.272-0.453,3.302C101.562,17.208,99.846,18.394,97.752,18.565z M97.752,6.191V8.11
			c-0.564-0.004-1.125,0.169-1.585,0.535c-0.439,0.348-0.788,0.892-0.966,1.66c-0.742,0-1.297,0-2.039,0
			C93.411,7.619,95.483,6.123,97.752,6.191L97.752,6.191z M97.752,11.455v1.885c-0.952,0.004-1.974,0.118-2.493,0.762
			c-0.511,0.635-0.361,1.558,0.264,2.094c0.43,0.37,1.027,0.467,1.577,0.467c0.227,0,0.445-0.015,0.652-0.046v1.949
			c-0.14,0.011-0.282,0.018-0.426,0.021c-3.207,0.05-5.113-2.707-4.429-4.8c0.289-0.883,1.04-1.648,2.349-2.032
			C96.032,11.525,96.908,11.468,97.752,11.455z"/>
		<g>
			<path d="M77.231,9.249V6.727c0.02-0.007,0.04-0.013,0.06-0.02c0.095-0.031,0.196-0.061,0.3-0.088v0
				c0.527-0.135,1.144-0.203,1.851-0.203v0l0.095,0h0.002l0.152,0.002h0.001l0.098,0.002h0.002l0.186,0.007h0.002
				c0.16,0.007,0.325,0.019,0.493,0.034l0.113,0.01v0.113v1.662v0.124h-0.124c-0.061,0-0.123-0.002-0.185-0.006h-0.001v0
				c-0.055-0.003-0.112-0.01-0.17-0.017V8.35L80.105,8.35l-0.001,0c-0.103,0-0.215-0.003-0.335-0.01h-0.001l-0.063-0.004
				l-0.079-0.004l-0.094-0.003l-0.09-0.001v0c-0.571,0-1.033,0.088-1.385,0.264V8.591l-0.004,0.002
				c-0.047,0.023-0.096,0.05-0.144,0.077c-0.046,0.026-0.091,0.054-0.134,0.082c-0.218,0.142-0.4,0.306-0.539,0.49l-0.001,0.001
				L77.231,9.249L77.231,9.249z M77.231,9.249L77.231,9.249L77.231,9.249L77.231,9.249z M92.057,18.126h-2.261h-0.066l-0.037-0.055
				l-2.802-4.192l-2.823,4.192l-0.037,0.055h-0.066h-1.884h-0.124v-0.124V2.174V2.049h0.124h1.884h0.125v0.124V14.44l5.226-7.945
				l0.037-0.056h0.066h2.283h0.234l-0.131,0.194l-3.611,5.341l3.966,5.96l0.128,0.193H92.057z M77.231,6.727v2.523l-0.001,0
				c-0.027,0.036-0.053,0.074-0.078,0.11c-0.023,0.035-0.048,0.074-0.071,0.113c-0.113,0.19-0.195,0.391-0.244,0.6
				c-0.036,0.153-0.064,0.298-0.081,0.431c-0.018,0.134-0.027,0.262-0.027,0.383v7.116v0.124h-0.124h-1.884h-0.125v-0.124v-7.116
				V10.87h0.001c0.001-0.262,0.017-0.523,0.049-0.783v-0.001l0.017-0.126V9.959c0.03-0.216,0.073-0.435,0.126-0.654
				c0.065-0.267,0.158-0.522,0.279-0.763c0.12-0.241,0.269-0.469,0.445-0.683l0.001-0.002l0.001-0.001
				c0.05-0.061,0.103-0.12,0.158-0.177c0.055-0.056,0.113-0.112,0.174-0.166V7.512c0.31-0.274,0.696-0.507,1.155-0.698l0,0
				l0.01-0.004C77.084,6.78,77.158,6.752,77.231,6.727L77.231,6.727z M68.004,18.458v-1.911h0.012v0.001
				c0.283-0.001,0.541-0.024,0.77-0.07l0.114-0.025c0.179-0.044,0.342-0.104,0.487-0.179c0.175-0.091,0.33-0.203,0.464-0.333
				c0.135-0.131,0.252-0.285,0.35-0.46l0.001-0.001l0.005-0.01h0.001c0.026-0.046,0.051-0.097,0.077-0.152
				c0.024-0.051,0.049-0.107,0.072-0.165h0.001c0.115-0.289,0.199-0.624,0.25-1.003c0.036-0.269,0.064-0.561,0.082-0.872
				c0.018-0.31,0.027-0.642,0.027-0.996c0-0.353-0.009-0.686-0.027-0.995c-0.018-0.312-0.046-0.602-0.082-0.873L70.606,10.4
				c-0.011-0.076-0.023-0.15-0.034-0.218c-0.012-0.069-0.027-0.139-0.042-0.208c-0.077-0.341-0.187-0.638-0.328-0.89
				c-0.097-0.174-0.214-0.328-0.35-0.46c-0.135-0.131-0.29-0.243-0.464-0.333V8.291l-0.007-0.004v0
				c-0.047-0.024-0.098-0.048-0.152-0.069c-0.054-0.022-0.11-0.043-0.165-0.06l-0.001,0c-0.296-0.094-0.649-0.141-1.058-0.141V6.107
				c0.503,0,0.962,0.045,1.37,0.133c0.412,0.089,0.779,0.225,1.096,0.405c0.632,0.357,1.124,0.827,1.475,1.407v0.001l0.005,0.008
				c0.048,0.08,0.095,0.163,0.14,0.247c0.043,0.082,0.085,0.168,0.126,0.256c0.204,0.445,0.353,0.933,0.444,1.46l0.004,0.022
				c0.018,0.105,0.034,0.209,0.049,0.308c0.015,0.1,0.028,0.204,0.042,0.31c0.064,0.529,0.096,1.07,0.096,1.619v0.023l0,0
				c-0.001,0.38-0.017,0.754-0.048,1.12l-0.001,0.001l-0.017,0.18v0.001c-0.031,0.311-0.073,0.619-0.125,0.922l-0.002,0.012
				c-0.018,0.101-0.039,0.204-0.061,0.307c-0.021,0.098-0.046,0.199-0.074,0.298c-0.136,0.5-0.329,0.956-0.578,1.366l-0.002,0.003
				l-0.001,0.001c-0.05,0.083-0.102,0.163-0.156,0.237c-0.054,0.076-0.112,0.151-0.173,0.224c-0.309,0.371-0.691,0.686-1.144,0.942
				c-0.318,0.18-0.684,0.316-1.096,0.405C68.966,18.414,68.508,18.458,68.004,18.458L68.004,18.458z M77.231,9.25L77.231,9.25
				L77.231,9.25z M60.379,6.461h2.017h0.172l-0.055,0.164L58.7,18.041l-0.028,0.085h-0.089h-1.951h-0.094l-0.025-0.091l-2.12-7.746
				l-2.141,7.746l-0.025,0.091h-0.094h-1.951h-0.089l-0.028-0.085l-3.79-11.417l-0.054-0.163h0.172h1.995h0.093l0.027,0.089
				l2.725,9.044l2.132-9.037l0.023-0.096h0.098h1.795h0.099l0.023,0.096l2.133,9.037l2.726-9.044l0.027-0.089H60.379L60.379,6.461z
				 M68.004,6.107v1.911h-0.001h-0.012v0c-0.284,0-0.543,0.024-0.772,0.071H67.22c-0.073,0.015-0.146,0.033-0.217,0.053v0
				c-0.138,0.04-0.266,0.091-0.382,0.151H66.62c-0.174,0.09-0.329,0.202-0.464,0.333c-0.135,0.131-0.252,0.286-0.35,0.46
				c-0.1,0.177-0.183,0.377-0.25,0.596c-0.068,0.221-0.12,0.466-0.156,0.734c-0.036,0.27-0.064,0.561-0.082,0.872v0.001
				c-0.018,0.31-0.027,0.642-0.027,0.995c0,0.354,0.009,0.686,0.027,0.996l0,0c0.018,0.311,0.046,0.602,0.082,0.872
				c0.036,0.268,0.088,0.513,0.156,0.734c0.067,0.219,0.151,0.418,0.25,0.596c0.098,0.175,0.215,0.328,0.35,0.46
				c0.135,0.131,0.29,0.243,0.464,0.333h0.001c0.174,0.091,0.376,0.159,0.604,0.204v0.001c0.23,0.046,0.49,0.069,0.779,0.069h0.001
				v1.911h-0.001l0,0h-0.011l0,0c-0.494-0.001-0.945-0.046-1.35-0.134c-0.067-0.014-0.133-0.03-0.196-0.047
				c-0.33-0.087-0.63-0.206-0.898-0.356l0.001-0.001l-0.003-0.001l-0.001-0.001c-0.085-0.048-0.173-0.1-0.259-0.157
				c-0.086-0.056-0.168-0.113-0.243-0.169l0,0c-0.402-0.302-0.729-0.663-0.981-1.08c-0.173-0.286-0.32-0.596-0.44-0.928
				c-0.119-0.331-0.211-0.683-0.275-1.055l-0.004-0.023v-0.001c-0.018-0.107-0.035-0.211-0.049-0.309v-0.001
				c-0.015-0.1-0.029-0.205-0.041-0.311c-0.064-0.53-0.096-1.065-0.096-1.604v-0.024h0.001c0.001-0.386,0.017-0.766,0.048-1.134
				l0.001-0.001l0.017-0.181v-0.001c0.031-0.312,0.072-0.618,0.125-0.919l0.002-0.012c0.018-0.101,0.038-0.203,0.061-0.305
				c0.024-0.106,0.048-0.205,0.072-0.295h0.001c0.136-0.495,0.33-0.949,0.578-1.36l0-0.001c0.175-0.289,0.387-0.553,0.636-0.788
				L64.7,7.263c0.247-0.234,0.531-0.44,0.849-0.619l0.007-0.004l0.001-0.001c0.088-0.049,0.183-0.096,0.282-0.14
				c0.099-0.043,0.199-0.083,0.302-0.119C66.671,6.198,67.293,6.106,68.004,6.107L68.004,6.107L68.004,6.107z"/>
		</g>
	</g>
	<path d="M25.95,1.453c1.171,0.985,1.965,2.471,1.996,4.466c0.026,1.625-0.657,3.729-1.996,6.092V1.453L25.95,1.453z M25.95,19.76
		c7.488,2.896,14.321-4.262,14.98-13.21l-3.52-0.158c-0.042,0.151-0.075,0.311-0.097,0.48c-0.901,6.943-4.923,12.81-10.988,9.579
		c-0.12,0.166-0.246,0.328-0.375,0.484V19.76z M19.541,14.651c-2.83-3.497-3.918-6.398-3.953-8.639
		c-0.093-5.938,6.841-7.517,10.362-4.558v10.558c-0.525,0.927-1.152,1.893-1.875,2.887c0,0-0.753,1.057-2.078,2.384
		C8.625,30.22,0.258,13.772,0,1.949V0.834c0.001-0.066,0.002-0.134,0.004-0.199h4.931c0.498,5.958,1.569,15.979,8.285,17.08
		c1.935,0.318,4.153-0.412,6.602-2.722c1.157-0.99,2.064-2.467,2.064-2.467c7.857-11.319-7.933-10.764-0.422-0.554
		C21.118,13.239,19.541,14.651,19.541,14.651L19.541,14.651z M25.95,16.935c-0.607,0.73-1.304,1.349-1.942,1.84
		c-0.016-0.01-0.034-0.018-0.054-0.023c0.668,0.418,1.334,0.752,1.996,1.007V16.935z"/>
</g>
</svg>
